<svg fill="none" height="512" viewBox="0 0 24 24" width="512" xmlns="http://www.w3.org/2000/svg"><g clip-rule="evenodd" fill-rule="evenodd"><path d="m12 2.75c-5.10863 0-9.25 4.14137-9.25 9.25 0 5.1086 4.14137 9.25 9.25 9.25.4723 0 .936-.0353 1.3884-.1034.4096-.0616.7916.2205.8533.6301.0616.4096-.2205.7916-.6301.8532-.5261.0791-1.0643.1201-1.6116.1201-5.93706 0-10.75-4.8129-10.75-10.75 0-5.93706 4.81294-10.75 10.75-10.75 5.9371 0 10.75 4.81294 10.75 10.75 0 1.3223-.2391 2.5905-.6771 3.7625-.1449.388-.577.585-.965.4401-.388-.145-.585-.5771-.4401-.9651.3762-1.0067.5822-2.0972.5822-3.2375 0-5.10863-4.1414-9.25-9.25-9.25z" fill="#607d8b"/><path d="m15.25 19c0-.4142.3358-.75.75-.75h4c.4142 0 .75.3358.75.75s-.3358.75-.75.75h-4c-.4142 0-.75-.3358-.75-.75z" fill="#4caf50"/><path d="m18 16.25c.4142 0 .75.3358.75.75v4c0 .4142-.3358.75-.75.75s-.75-.3358-.75-.75v-4c0-.4142.3358-.75.75-.75z" fill="#4caf50"/></g><path d="m10.3859 8.35688c-.2317-.13902-.52029-.14266-.75542-.00953-.23514.13313-.38048.38245-.38048.65265v6c0 .2702.14534.5195.38048.6526.23513.1332.52372.1295.75542-.0095l5-3c.2259-.1355.3641-.3797.3641-.6431s-.1382-.5076-.3641-.6431z" fill="#486472"/><path d="m2.75 12c0-5.10863 4.14137-9.25 9.25-9.25 5.1086 0 9.25 4.14137 9.25 9.25 0 1.1403-.206 2.2308-.5822 3.2375-.1449.388.0521.8201.4401.9651.388.1449.8201-.0521.965-.4401.438-1.172.6771-2.4402.6771-3.7625 0-5.93706-4.8129-10.75-10.75-10.75-5.93706 0-10.75 4.81294-10.75 10.75 0 5.9371 4.81294 10.75 10.75 10.75.5473 0 1.0855-.041 1.6116-.1201.4096-.0616.6917-.4436.6301-.8532-.0617-.4096-.4437-.6917-.8533-.6301-.4524.0681-.9161.1034-1.3884.1034-5.10863 0-9.25-4.1414-9.25-9.25z" fill="#000"/><path d="m16 18.25c-.4142 0-.75.3358-.75.75s.3358.75.75.75h1.25v1.25c0 .4142.3358.75.75.75s.75-.3358.75-.75v-1.25h1.25c.4142 0 .75-.3358.75-.75s-.3358-.75-.75-.75h-1.25v-1.25c0-.4142-.3358-.75-.75-.75s-.75.3358-.75.75v1.25z" fill="#000"/><path clip-rule="evenodd" d="m10.3859 8.35688c-.2317-.13902-.52029-.14266-.75542-.00953-.23514.13313-.38048.38245-.38048.65265v6c0 .2702.14534.5195.38048.6526.23513.1332.52372.1295.75542-.0095l5-3c.2259-.1355.3641-.3797.3641-.6431s-.1382-.5076-.3641-.6431zm3.1564 3.64312-2.7923 1.6754v-3.3508z" fill="#000" fill-rule="evenodd"/></svg>