<?xml version="1.0" encoding="utf-8"?><svg xmlns="http://www.w3.org/2000/svg" xmlns:xlink="http://www.w3.org/1999/xlink" width="200px" height="200px" viewBox="0 0 100 100" preserveAspectRatio="xMidYMid" style="margin-right:-2px;display:block;background-repeat-y:initial;background-repeat-x:initial;background-color:rgb(241, 242, 243);animation-play-state:paused" ><g transform="rotate(0 50 50)" style="transform:matrix(1, 0, 0, 1, 0, 0);animation-play-state:paused" ><rect x="48" y="26.5" rx="2" ry="6.5" width="4" height="13" fill="#93dbe9" opacity="0.071429" style="opacity:0.071429;animation-play-state:paused" ></rect></g>
<g transform="rotate(25.714285714285715 50 50)" style="transform:matrix(0.900969, 0.433884, -0.433884, 0.900969, 26.6457, -16.7426);animation-play-state:paused" ><rect x="48" y="26.5" rx="2" ry="6.5" width="4" height="13" fill="#93dbe9" opacity="0.142858" style="opacity:0.142858;animation-play-state:paused" ></rect></g>
<g transform="rotate(51.42857142857143 50 50)" style="transform:matrix(0.62349, 0.781831, -0.781831, 0.62349, 57.9171, -20.2661);animation-play-state:paused" ><rect x="48" y="26.5" rx="2" ry="6.5" width="4" height="13" fill="#93dbe9" opacity="0.214286" style="opacity:0.214286;animation-play-state:paused" ></rect></g>
<g transform="rotate(77.14285714285714 50 50)" style="transform:matrix(0.222521, 0.974928, -0.974928, 0.222521, 87.6204, -9.87244);animation-play-state:paused" ><rect x="48" y="26.5" rx="2" ry="6.5" width="4" height="13" fill="#93dbe9" opacity="0.285715" style="opacity:0.285715;animation-play-state:paused" ></rect></g>
<g transform="rotate(102.85714285714286 50 50)" style="transform:matrix(-0.222521, 0.974928, -0.974928, -0.222521, 109.872, 12.3796);animation-play-state:paused" ><rect x="48" y="26.5" rx="2" ry="6.5" width="4" height="13" fill="#93dbe9" opacity="0.357143" style="opacity:0.357143;animation-play-state:paused" ></rect></g>
<g transform="rotate(128.57142857142858 50 50)" style="transform:matrix(-0.62349, 0.781832, -0.781832, -0.62349, 120.266, 42.0829);animation-play-state:paused" ><rect x="48" y="26.5" rx="2" ry="6.5" width="4" height="13" fill="#93dbe9" opacity="0.428572" style="opacity:0.428572;animation-play-state:paused" ></rect></g>
<g transform="rotate(154.28571428571428 50 50)" style="transform:matrix(-0.900969, 0.433884, -0.433884, -0.900969, 116.743, 73.3543);animation-play-state:paused" ><rect x="48" y="26.5" rx="2" ry="6.5" width="4" height="13" fill="#93dbe9" opacity="0.5" style="opacity:0.5;animation-play-state:paused" ></rect></g>
<g transform="rotate(180 50 50)" style="transform:matrix(-1, 1.22465e-16, -1.22465e-16, -1, 100, 100);animation-play-state:paused" ><rect x="48" y="26.5" rx="2" ry="6.5" width="4" height="13" fill="#93dbe9" opacity="0.571429" style="opacity:0.571429;animation-play-state:paused" ></rect></g>
<g transform="rotate(205.71428571428572 50 50)" style="transform:matrix(-0.900969, -0.433884, 0.433884, -0.900969, 73.3543, 116.743);animation-play-state:paused" ><rect x="48" y="26.5" rx="2" ry="6.5" width="4" height="13" fill="#93dbe9" opacity="0.642858" style="opacity:0.642858;animation-play-state:paused" ></rect></g>
<g transform="rotate(231.42857142857142 50 50)" style="transform:matrix(-0.62349, -0.781832, 0.781832, -0.62349, 42.0829, 120.266);animation-play-state:paused" ><rect x="48" y="26.5" rx="2" ry="6.5" width="4" height="13" fill="#93dbe9" opacity="0.714286" style="opacity:0.714286;animation-play-state:paused" ></rect></g>
<g transform="rotate(257.14285714285717 50 50)" style="transform:matrix(-0.222521, -0.974928, 0.974928, -0.222521, 12.3797, 109.872);animation-play-state:paused" ><rect x="48" y="26.5" rx="2" ry="6.5" width="4" height="13" fill="#93dbe9" opacity="0.785715" style="opacity:0.785715;animation-play-state:paused" ></rect></g>
<g transform="rotate(282.85714285714283 50 50)" style="transform:matrix(0.222521, -0.974928, 0.974928, 0.222521, -9.87245, 87.6203);animation-play-state:paused" ><rect x="48" y="26.5" rx="2" ry="6.5" width="4" height="13" fill="#93dbe9" opacity="0.857143" style="opacity:0.857143;animation-play-state:paused" ></rect></g>
<g transform="rotate(308.57142857142856 50 50)" style="transform:matrix(0.62349, -0.781831, 0.781831, 0.62349, -20.2661, 57.9171);animation-play-state:paused" ><rect x="48" y="26.5" rx="2" ry="6.5" width="4" height="13" fill="#93dbe9" opacity="0.928572" style="opacity:0.928572;animation-play-state:paused" ></rect></g>
<g transform="rotate(334.2857142857143 50 50)" style="transform:matrix(0.900969, -0.433884, 0.433884, 0.900969, -16.7426, 26.6458);animation-play-state:paused" ><rect x="48" y="26.5" rx="2" ry="6.5" width="4" height="13" fill="#93dbe9" opacity="1" style="animation-play-state:paused" ></rect></g></svg>